<?xml version="1.0" standalone="no"?><!DOCTYPE svg PUBLIC "-//W3C//DTD SVG 1.1//EN" "http://www.w3.org/Graphics/SVG/1.1/DTD/svg11.dtd"><svg t="1753879862748" class="icon" viewBox="0 0 1024 1024" version="1.1" xmlns="http://www.w3.org/2000/svg" p-id="4463" xmlns:xlink="http://www.w3.org/1999/xlink" width="200" height="200"><path d="M438.4 297.6c12.8 12.8 12.8 28.8 3.2 41.6l-3.2 3.2L300.8 480H800c19.2 0 32 12.8 32 32 0 16-12.8 28.8-28.8 32H300.8l137.6 137.6c12.8 12.8 12.8 28.8 3.2 41.6l-3.2 3.2c-12.8 12.8-28.8 12.8-41.6 3.2l-3.2-3.2-192-192-3.2-3.2-3.2-3.2-3.2-3.2V499.2l3.2-3.2 3.2-3.2 3.2-3.2 192-192c12.8-12.8 32-12.8 44.8 0z" fill="#221814" p-id="4464"></path></svg>