<?xml version="1.0" standalone="no"?><!DOCTYPE svg PUBLIC "-//W3C//DTD SVG 1.1//EN" "http://www.w3.org/Graphics/SVG/1.1/DTD/svg11.dtd"><svg t="1753972754251" class="icon" viewBox="0 0 1103 1024" version="1.1" xmlns="http://www.w3.org/2000/svg" p-id="5616" xmlns:xlink="http://www.w3.org/1999/xlink" width="215.4296875" height="200"><path d="M810.584222 0a293.966769 293.966769 0 0 0-258.599385 166.990769A293.336615 293.336615 0 0 0 292.59776 0 304.206769 304.206769 0 0 0 0.206375 315.076923a328.152615 328.152615 0 0 0 77.90277 214.252308l448.984615 483.643077a33.792 33.792 0 0 0 49.939692 0l448.984616-483.643077A329.964308 329.964308 0 0 0 1102.975606 315.076923a304.206769 304.206769 0 0 0-292.391384-315.076923z m159.428923 478.129231l-418.028308 455.286154-418.028308-455.286154A246.153846 246.153846 0 0 1 73.698068 315.076923a219.057231 219.057231 0 0 1 430.552615-71.68 50.569846 50.569846 0 0 0 96.256 0.787692A223.783385 223.783385 0 0 1 810.662991 78.769231a227.800615 227.800615 0 0 1 218.899692 236.307692 241.900308 241.900308 0 0 1-59.549538 163.052308z" fill="#FF6600" p-id="5617"></path></svg>