<?xml version="1.0" standalone="no"?><!DOCTYPE svg PUBLIC "-//W3C//DTD SVG 1.1//EN" "http://www.w3.org/Graphics/SVG/1.1/DTD/svg11.dtd"><svg t="1753937742949" class="icon" viewBox="0 0 1024 1024" version="1.1" xmlns="http://www.w3.org/2000/svg" p-id="7734" xmlns:xlink="http://www.w3.org/1999/xlink" width="200" height="200"><path d="M783.36 294.765714L294.765714 783.36h101.046857a38.034286 38.034286 0 1 1 0 76.068571H205.677714l-1.353143-0.018285a37.924571 37.924571 0 0 1-28.233142-11.117715 37.869714 37.869714 0 0 1-11.008-23.771428A38.290286 38.290286 0 0 1 164.571429 818.322286V628.187429a38.034286 38.034286 0 1 1 76.068571 0v101.796571l489.325714-489.362286h-101.778285a38.034286 38.034286 0 1 1 0-76.050285h190.134857c2.121143 0 4.187429 0.182857 6.217143 0.512 8.649143 0.694857 17.115429 4.370286 23.753142 11.008 7.771429 7.753143 11.465143 18.048 11.117715 28.233142l0.018285 1.353143v190.134857a38.034286 38.034286 0 1 1-76.068571 0V294.765714z" p-id="7735"></path></svg>